<svg xmlns="http://www.w3.org/2000/svg" width="35" height="35" viewBox="0 0 35 35">
    <g fill="none" fill-rule="evenodd">
        <g fill-rule="nonzero">
            <g>
                <g>
                    <g>
                        <path fill="#5454D4" d="M32.925 22.611L29.64 20.7l-11.86 6.897c-.698.407-1.556.407-2.253 0L3.669 20.7.38 22.611c-.236.138-.381.393-.381.67 0 .276.145.531.381.668l15.894 9.25c.232.135.518.135.75 0l15.894-9.25c.236-.137.381-.392.381-.669 0-.276-.145-.531-.381-.669h.006z" transform="translate(-704 -1753) translate(0 1753.2) translate(580.5) translate(124.2)"/>
                        <path fill="#D8D7E6" d="M32.925 16.311L29.64 14.4l-11.86 6.897c-.698.407-1.556.407-2.253 0L3.669 14.4.38 16.311c-.236.138-.381.393-.381.67 0 .276.145.531.381.668l15.894 9.25c.232.135.518.135.75 0l15.894-9.25c.236-.137.381-.392.381-.669 0-.276-.145-.531-.381-.669h.006z" transform="translate(-704 -1753) translate(0 1753.2) translate(580.5) translate(124.2)"/>
                        <path fill="#5454D4" d="M32.919 9.239L17.025.1c-.232-.133-.518-.133-.75 0L.38 9.24C.145 9.375 0 9.627 0 9.9s.145.525.381.661L16.275 19.7c.232.133.518.133.75 0L32.92 10.56c.236-.136.381-.388.381-.661s-.145-.525-.381-.661z" transform="translate(-704 -1753) translate(0 1753.2) translate(580.5) translate(124.2)"/>
                    </g>
                </g>
            </g>
        </g>
    </g>
</svg>
