<svg xmlns="http://www.w3.org/2000/svg" width="29" height="34" viewBox="0 0 29 34">
    <g fill="none" fill-rule="evenodd">
        <g fill-rule="nonzero">
            <g>
                <g>
                    <g>
                        <path fill="#5454D4" d="M10.812 18.63H.676c-.373 0-.676-.321-.676-.717V.717C0 .32.303 0 .676 0h10.136c.373 0 .676.321.676.717v17.196c0 .396-.303.717-.676.717z" transform="translate(-365 -1753) translate(0 1753.2) translate(239.4) translate(126)"/>
                        <path fill="#D8D7E6" d="M10.812 32.4H.676c-.373 0-.676-.337-.676-.752v-9.026c0-.415.303-.752.676-.752h10.136c.373 0 .676.337.676.752v9.026c0 .415-.303.752-.676.752zM27.224 10.53H17.088c-.373 0-.676-.337-.676-.752V.752c0-.415.303-.752.676-.752h10.136c.373 0 .676.337.676.752v9.026c0 .415-.303.752-.676.752z" transform="translate(-365 -1753) translate(0 1753.2) translate(239.4) translate(126)"/>
                        <path fill="#5454D4" d="M27.224 32.4H17.088c-.373 0-.676-.321-.676-.717V14.487c0-.396.303-.717.676-.717h10.136c.373 0 .676.321.676.717v17.196c0 .396-.303.717-.676.717z" transform="translate(-365 -1753) translate(0 1753.2) translate(239.4) translate(126)"/>
                    </g>
                </g>
            </g>
        </g>
    </g>
</svg>
