<svg xmlns="http://www.w3.org/2000/svg" width="16" height="15" viewBox="0 0 16 15">
    <g fill="none" fill-rule="evenodd">
        <g fill="#F04037">
            <g>
                <g>
                    <g>
                        <path d="M79.482.185l2.055 4.366 4.593.7c.119.02.218.106.255.226.037.12.006.25-.08.339l-3.323 3.398.784 4.799c.021.124-.028.249-.125.323-.097.074-.226.084-.332.025L79.2 12.096l-4.108 2.266c-.106.059-.235.049-.332-.025-.098-.074-.146-.2-.125-.323l.784-4.8-3.324-3.398c-.086-.088-.117-.22-.08-.34.037-.119.136-.206.255-.224l4.593-.7L78.92.184C78.97.072 79.08 0 79.2 0c.12 0 .23.072.282.185z" transform="translate(-1009 -3528) translate(0 3286.8) translate(904.5 206.1) translate(33.3 35.1)"/>
                    </g>
                </g>
            </g>
        </g>
    </g>
</svg>
