<svg xmlns="http://www.w3.org/2000/svg" width="34" height="34" viewBox="0 0 34 34">
    <g fill="none" fill-rule="evenodd">
        <g fill-rule="nonzero">
            <g>
                <g>
                    <g>
                        <path fill="#D8D7E6" d="M1.421 6.794H13.5V5.4H.71c-.392 0-.71.311-.71.697v20.206c0 .386.318.697.71.697h2.132v-1.394h-1.42V6.794z" transform="translate(-1045 -1753) translate(0 1753.2) translate(921.6) translate(124.2)"/>
                        <path fill="#5454D4" d="M12.808 19.8H5.192c-.383 0-.692.313-.692.7v11.2c0 .387.31.7.692.7h7.616c.383 0 .692-.313.692-.7V20.5c0-.387-.31-.7-.692-.7zM9 30.3c-.573 0-1.038-.47-1.038-1.05 0-.58.465-1.05 1.038-1.05s1.038.47 1.038 1.05c0 .58-.465 1.05-1.038 1.05zM26.479 0H15.82C15.037 0 14.4.624 14.4 1.39v12.52c0 .766.637 1.39 1.421 1.39H26.48c.784 0 1.421-.624 1.421-1.39V1.39C27.9.625 27.263 0 26.479 0zM21.15 13.214c-.588 0-1.066-.468-1.066-1.044 0-.575.478-1.043 1.066-1.043.588 0 1.066.468 1.066 1.043 0 .576-.478 1.044-1.066 1.044z" transform="translate(-1045 -1753) translate(0 1753.2) translate(921.6) translate(124.2)"/>
                        <path fill="#D8D7E6" d="M31.68 5.4h-2.16v1.4h1.44v18.9H14.4v4.9h7.2c.397 0 .72-.314.72-.7 0-.386-.323-.7-.72-.7h-2.88v-2.1h12.96c.398 0 .72-.313.72-.7V6.1c0-.387-.322-.7-.72-.7z" transform="translate(-1045 -1753) translate(0 1753.2) translate(921.6) translate(124.2)"/>
                    </g>
                </g>
            </g>
        </g>
    </g>
</svg>
